<mxfile host="app.diagrams.net" modified="2023-06-04T20:46:24.180Z" agent="Mozilla/5.0 (Windows NT 10.0; Win64; x64) AppleWebKit/537.36 (KHTML, like Gecko) Chrome/113.0.0.0 Safari/537.36 Edg/113.0.1774.57" etag="aYjtg-E5E4O8GaEmP_FM" version="21.3.6" type="github">
  <diagram name="Página-1" id="Wtqft_Nes3MS_ZDdaxN1">
    <mxGraphModel dx="825" dy="444" grid="0" gridSize="10" guides="1" tooltips="1" connect="1" arrows="1" fold="1" page="1" pageScale="1" pageWidth="827" pageHeight="1169" math="0" shadow="0">
      <root>
        <mxCell id="0" />
        <mxCell id="1" parent="0" />
        <mxCell id="gZKw63xmKDyzVgz7ueIA-3" style="edgeStyle=orthogonalEdgeStyle;rounded=0;orthogonalLoop=1;jettySize=auto;html=1;entryX=0.5;entryY=0;entryDx=0;entryDy=0;" edge="1" parent="1" source="gZKw63xmKDyzVgz7ueIA-1" target="gZKw63xmKDyzVgz7ueIA-2">
          <mxGeometry relative="1" as="geometry" />
        </mxCell>
        <mxCell id="gZKw63xmKDyzVgz7ueIA-1" value="Inserir velocidade" style="whiteSpace=wrap;html=1;aspect=fixed;" vertex="1" parent="1">
          <mxGeometry x="330" y="70" width="80" height="80" as="geometry" />
        </mxCell>
        <mxCell id="gZKw63xmKDyzVgz7ueIA-5" style="edgeStyle=orthogonalEdgeStyle;rounded=0;orthogonalLoop=1;jettySize=auto;html=1;entryX=1;entryY=0.5;entryDx=0;entryDy=0;" edge="1" parent="1" source="gZKw63xmKDyzVgz7ueIA-2" target="gZKw63xmKDyzVgz7ueIA-4">
          <mxGeometry relative="1" as="geometry" />
        </mxCell>
        <mxCell id="gZKw63xmKDyzVgz7ueIA-9" style="edgeStyle=orthogonalEdgeStyle;rounded=0;orthogonalLoop=1;jettySize=auto;html=1;" edge="1" parent="1" source="gZKw63xmKDyzVgz7ueIA-2" target="gZKw63xmKDyzVgz7ueIA-8">
          <mxGeometry relative="1" as="geometry" />
        </mxCell>
        <mxCell id="gZKw63xmKDyzVgz7ueIA-2" value="Velocidade &amp;gt; 80" style="rhombus;whiteSpace=wrap;html=1;" vertex="1" parent="1">
          <mxGeometry x="320" y="210" width="100" height="100" as="geometry" />
        </mxCell>
        <mxCell id="gZKw63xmKDyzVgz7ueIA-7" style="edgeStyle=orthogonalEdgeStyle;rounded=0;orthogonalLoop=1;jettySize=auto;html=1;entryX=0.5;entryY=0;entryDx=0;entryDy=0;" edge="1" parent="1" source="gZKw63xmKDyzVgz7ueIA-4" target="gZKw63xmKDyzVgz7ueIA-6">
          <mxGeometry relative="1" as="geometry" />
        </mxCell>
        <mxCell id="gZKw63xmKDyzVgz7ueIA-4" value="Sim" style="whiteSpace=wrap;html=1;" vertex="1" parent="1">
          <mxGeometry x="130" y="230" width="80" height="60" as="geometry" />
        </mxCell>
        <mxCell id="gZKw63xmKDyzVgz7ueIA-12" style="edgeStyle=orthogonalEdgeStyle;rounded=0;orthogonalLoop=1;jettySize=auto;html=1;entryX=0;entryY=0.5;entryDx=0;entryDy=0;" edge="1" parent="1" source="gZKw63xmKDyzVgz7ueIA-6" target="gZKw63xmKDyzVgz7ueIA-10">
          <mxGeometry relative="1" as="geometry" />
        </mxCell>
        <mxCell id="gZKw63xmKDyzVgz7ueIA-6" value="Multa por excesso de velocidade." style="rounded=1;whiteSpace=wrap;html=1;" vertex="1" parent="1">
          <mxGeometry x="110" y="370" width="120" height="60" as="geometry" />
        </mxCell>
        <mxCell id="gZKw63xmKDyzVgz7ueIA-11" style="edgeStyle=orthogonalEdgeStyle;rounded=0;orthogonalLoop=1;jettySize=auto;html=1;entryX=0.5;entryY=0;entryDx=0;entryDy=0;" edge="1" parent="1" source="gZKw63xmKDyzVgz7ueIA-8" target="gZKw63xmKDyzVgz7ueIA-10">
          <mxGeometry relative="1" as="geometry" />
        </mxCell>
        <mxCell id="gZKw63xmKDyzVgz7ueIA-8" value="Não" style="whiteSpace=wrap;html=1;" vertex="1" parent="1">
          <mxGeometry x="540" y="230" width="70" height="60" as="geometry" />
        </mxCell>
        <mxCell id="gZKw63xmKDyzVgz7ueIA-10" value="FIM!" style="rounded=1;whiteSpace=wrap;html=1;" vertex="1" parent="1">
          <mxGeometry x="525" y="375" width="100" height="50" as="geometry" />
        </mxCell>
      </root>
    </mxGraphModel>
  </diagram>
</mxfile>
